<svg xmlns="http://www.w3.org/2000/svg" width="690" height="421" fill="none" viewBox="0 0 690 421">
  <g class="Ativo 2 1" clip-path="url(#clip0_648_1613)">
    <g class="Camada 2">
      <g class="Background Complete">
        <path fill="#EBEBEB" d="M431.37 408a16.667 16.667 0 0115.818-.258 16.663 16.663 0 018.902 13.078c-10.1 0-20-2.35-24.72-12.82z" class="Vector"/>
        <path fill="#EBEBEB" d="M443.14 397.65a21.551 21.551 0 0026.537-12.031 21.552 21.552 0 001.633-10.429c-12.82 2.51-24.86 8-28.17 22.46z" class="Vector_2"/>
        <path fill="#E0E0E0" d="M399.17 414.73c.204-.098.414-.182.63-.25l1.85-.62c1.6-.52 3.92-1.28 6.77-2.27 5.7-2 13.54-4.83 22-8.51 4.22-1.85 8.18-3.73 11.74-5.53 3.56-1.8 6.67-3.58 9.24-5.15a61.383 61.383 0 005.88-4c1.32-1 2-1.71 2-1.67 0 .04-.14.19-.45.5-.447.475-.924.919-1.43 1.33a53.331 53.331 0 01-5.81 4.19c-2.56 1.62-5.69 3.41-9.22 5.27-3.53 1.86-7.52 3.72-11.75 5.58-8.45 3.68-16.32 6.5-22.06 8.38-2.87.95-5.21 1.65-6.84 2.11l-1.87.53c-.221.066-.45.103-.68.11z" class="Vector_3"/>
        <path fill="#E0E0E0" d="M444.34 413.87c0 .08-1.22-.74-3.24-1.83a40.145 40.145 0 00-8.27-3.32 39.37 39.37 0 00-8.81-1.35c-2.29-.09-3.71 0-3.71-.08a3.853 3.853 0 011-.16A23.464 23.464 0 01424 407a34.474 34.474 0 0117.26 4.72c.787.461 1.548.965 2.28 1.51.295.176.564.391.8.64z" class="Vector_4"/>
        <path fill="#EBEBEB" d="M206.11 368.91a20.995 20.995 0 002.696 19.767 20.994 20.994 0 0018.004 8.593c-1.92-12.59-6.76-24.54-20.7-28.36z" class="Vector_5"/>
        <path fill="#E0E0E0" d="M204.13 362.73c.09 0 .43 1.38 1.16 3.57a52.98 52.98 0 003.55 8.28 52.534 52.534 0 004.93 7.54c1.43 1.82 2.4 2.88 2.34 2.94-.06.06-.3-.22-.76-.67-.46-.45-1.11-1.15-1.86-2a43.737 43.737 0 01-8.55-15.95c-.32-1.12-.55-2-.67-2.67a4.299 4.299 0 01-.14-1.04z" class="Vector_6"/>
        <path fill="#EBEBEB" d="M6.27 116.57a32.53 32.53 0 0032.07 43.93c-3-19.5-10.47-38-32.07-43.93" class="Vector_7"/>
        <path fill="#E0E0E0" d="M3.21 107c.203.481.36.98.47 1.49.26 1 .67 2.36 1.22 4.07a77.732 77.732 0 0013.16 24.54 86.36 86.36 0 002.71 3.27 7.83 7.83 0 011 1.22c-.402-.332-.78-.693-1.13-1.08-.71-.71-1.69-1.8-2.85-3.18a69.707 69.707 0 01-13.24-24.65c-.51-1.73-.87-3.14-1.07-4.13a9.324 9.324 0 01-.27-1.55z" class="Vector_8"/>
        <path fill="#EBEBEB" d="M40.05 315.62a21.006 21.006 0 00-7.732 18.385A21 21 0 0043.44 350.56c4.76-11.81 6.67-24.56-3.39-34.94z" class="Vector_9"/>
        <path fill="#E0E0E0" d="M41.5 309.3c.08 0-.33 1.4-.82 3.66a51.618 51.618 0 00-.75 17.93c.3 2.3.59 3.7.51 3.72a4.356 4.356 0 01-.31-1c-.17-.62-.37-1.54-.57-2.69a44 44 0 01.76-18.08c.218-.893.482-1.774.79-2.64.093-.315.224-.617.39-.9z" class="Vector_10"/>
        <path fill="#EBEBEB" d="M225.64 62.76a21.002 21.002 0 0027.317-7.85A20.998 20.998 0 00256 45.07c-12.72.62-25.1 4.21-30.33 17.69" class="Vector_11"/>
        <path fill="#E0E0E0" d="M219.29 64.08c0-.08 1.41-.28 3.67-.78a53.203 53.203 0 008.6-2.68 53.443 53.443 0 008-4.13c2-1.23 3.11-2.09 3.16-2-.214.26-.463.489-.74.68-.5.42-1.26 1-2.22 1.65A43.92 43.92 0 01223 63.66c-1.14.21-2.08.34-2.72.39a3.35 3.35 0 01-.99.03z" class="Vector_12"/>
        <path fill="#EBEBEB" d="M199.72 60.94a28.236 28.236 0 0020-17.07 28.204 28.204 0 00-3.29-26.1c-12.6 11.09-22.42 25-16.72 43.17" class="Vector_13"/>
        <path fill="#E0E0E0" d="M194.27 67.52c.244-.362.525-.697.84-1 .57-.63 1.38-1.57 2.34-2.75a69.205 69.205 0 006.69-9.83A69.205 69.205 0 00209 43c.49-1.44.87-2.62 1.11-3.44a5.84 5.84 0 01.43-1.26 6.78 6.78 0 01-.24 1.31c-.18.84-.5 2-.95 3.51A59.131 59.131 0 01197.73 64c-1 1.15-1.85 2.06-2.47 2.65a6.702 6.702 0 01-.99.87z" class="Vector_14"/>
        <path fill="#EBEBEB" d="M281.75 403.5a12.645 12.645 0 009.861 6.844 12.65 12.65 0 0011.139-4.474c-6.36-4.28-13.64-7-21-2.37z" class="Vector_15"/>
        <path fill="#E0E0E0" d="M278.21 401.86a57.599 57.599 0 007.2 2.64c2.499.546 5.031.93 7.58 1.15a8.08 8.08 0 01-2.27.13 25.009 25.009 0 01-10.58-2.71 7.098 7.098 0 01-1.93-1.21z" class="Vector_16"/>
        <path fill="#EBEBEB" d="M374.45 44.46a12.646 12.646 0 0011.005 4.82 12.642 12.642 0 0010.065-6.56c-7.07-3-14.73-4.22-21.07 1.74z" class="Vector_17"/>
        <path fill="#E0E0E0" d="M370.66 43.54a57.68 57.68 0 007.57 1.2 57.993 57.993 0 007.66-.35c-.701.308-1.447.5-2.21.57-1.81.302-3.648.403-5.48.3a25.074 25.074 0 01-5.42-.91 7.537 7.537 0 01-2.12-.81z" class="Vector_18"/>
        <path fill="#EBEBEB" d="M614.68 75.23a21 21 0 0026.38-23.16c-12.36 3-23.83 8.93-26.38 23.16z" class="Vector_19"/>
        <path fill="#E0E0E0" d="M608.71 77.74c0-.08 1.33-.55 3.45-1.47a51.3 51.3 0 0015-9.86c1.69-1.58 2.65-2.65 2.72-2.59a4.223 4.223 0 01-.6.82c-.41.5-1 1.2-1.86 2a43.83 43.83 0 01-15.11 9.94c-1.08.42-2 .73-2.6.9a3.592 3.592 0 01-1 .26z" class="Vector_20"/>
        <path fill="#EBEBEB" d="M638.34 380a36.533 36.533 0 0021.18-57.28c-16.39 14.89-29.06 33.4-21.18 57.28z" class="Vector_21"/>
        <path fill="#E0E0E0" d="M631.29 388.81c.335-.483.71-.938 1.12-1.36.75-.84 1.8-2.09 3.05-3.66 1.25-1.57 2.68-3.5 4.18-5.7 1.5-2.2 3-4.71 4.47-7.41 1.47-2.7 2.67-5.36 3.7-7.81 1.03-2.45 1.83-4.72 2.44-6.64.61-1.92 1.08-3.48 1.37-4.57.134-.57.304-1.132.51-1.68-.056.584-.16 1.163-.31 1.73-.23 1.11-.64 2.69-1.21 4.63s-1.36 4.22-2.35 6.71-2.24 5.15-3.69 7.88a86.58 86.58 0 01-4.53 7.43c-1.53 2.2-3 4.12-4.29 5.66s-2.4 2.77-3.19 3.57c-.39.44-.815.848-1.27 1.22z" class="Vector_22"/>
      </g>
      <g class="Background Simple">
        <path fill="#EBEBEB" d="M211.38 25c-7.94-6.51-20.91-5.46-27.88 2.08-6.05 5.32-4.19 20.44 3.32 27.45 7.51 7.01 20.9 6 27.42-1.94 6.52-7.94 5.09-21.12-2.86-27.59z" class="Vector_23"/>
        <path fill="#EBEBEB" d="M392.6 38.73c8.28 3.38 17.22-4.53 26.11-3.61 4.55.47 8.5 3.2 12.74 4.9 4.24 1.7 12.61 2.16 14.3-3.5 3.86-6.87-2.45-15.12-8.59-19.78-6.14-4.66-17.15-6.2-24.85-6.62-5.53-.29-11.22.22-16.22 2.59-5 2.37-9.21 6.84-10.26 12.29-1.05 5.45 1.65 11.63 6.77 13.73z" class="Vector_24"/>
        <path fill="#EBEBEB" d="M95.494 147.371c25.976-4.421 43.45-29.063 39.028-55.039-4.421-25.976-29.063-43.45-55.04-39.028-25.975 4.422-43.449 29.064-39.027 55.04 4.422 25.975 29.063 43.449 55.04 39.027z" class="Vector_25"/>
        <path fill="#EBEBEB" d="M159.69 323.9c-18.11-22-37.72-34.08-55.93-35.74-19.54-1.3-40.69 6.78-50.37 23.81-9.68 17.03-3.34 42.6 15 49.43 7.54 2.81 16.22 2.46 23.09 6.65 10.7 6.52 12.89 21.13 21 30.66 10 11.7 28.78 13.7 42.14 6.07 13.36-7.63 21.08-23.27 21.25-38.66.17-15.39-6.41-30.33-16.18-42.22z" class="Vector_26"/>
        <path fill="#EBEBEB" d="M640.949 280.919c27.271-.605 48.888-23.202 48.283-50.473-.604-27.27-23.202-48.887-50.472-48.283-27.271.605-48.888 23.202-48.283 50.473.604 27.27 23.201 48.887 50.472 48.283z" class="Vector_27"/>
      </g>
      <g class="Capa 8">
        <path fill="#3D3ADA" d="M502.6 253.93c-6.32-35.25-36.58-66-72.27-68.93-19.45-1.59-39 4.55-58.37 2.21a67.998 67.998 0 01-42.49-22.41c-16-18.2-21.42-44.09-38.35-61.41-23.34-23.88-64.07-24.26-92.47-6.69-28.4 17.57-45.57 49.3-53.43 81.73l-.31 9.87c-1.71 33.67 7.15 72.79 26.68 102.8 19.78 30.39 32.8 42.94 68.86 64.8 30.62 18.56 90.58 26.72 126.38 27.59 35.8.87 72.57-9.81 99.49-33.42s42.6-60.89 36.28-96.14z" class="Vector_28"/>
        <g class="Group" opacity=".8">
          <path fill="#fff" d="M502.6 253.93c-6.32-35.25-36.58-66-72.27-68.93-19.45-1.59-39 4.55-58.37 2.21a67.998 67.998 0 01-42.49-22.41c-16-18.2-21.42-44.09-38.35-61.41-23.34-23.88-64.07-24.26-92.47-6.69-28.4 17.57-45.57 49.3-53.43 81.73l-.31 9.87c-1.71 33.67 7.15 72.79 26.68 102.8 19.78 30.39 32.8 42.94 68.86 64.8 30.62 18.56 90.58 26.72 126.38 27.59 35.8.87 72.57-9.81 99.49-33.42s42.6-60.89 36.28-96.14z" class="Vector_29" opacity=".8"/>
        </g>
        <path fill="#3D3ADA" d="M537.69 379.782c1.368-9.428-5.165-18.18-14.593-19.549-9.428-1.369-18.181 5.165-19.549 14.593-1.369 9.428 5.164 18.181 14.592 19.549 9.428 1.369 18.181-5.165 19.55-14.593z" class="Vector_30"/>
        <path fill="#fff" d="M537.69 379.782c1.368-9.428-5.165-18.18-14.593-19.549-9.428-1.369-18.181 5.165-19.549 14.593-1.369 9.428 5.164 18.181 14.592 19.549 9.428 1.369 18.181-5.165 19.55-14.593z" class="Vector_31" opacity=".8"/>
      </g>
      <g class="404">
        <path fill="#3D3ADA" d="M399.54 244.58c.327 34.44-7.18 60.773-22.52 79-15.34 18.227-36.34 27.463-63 27.71-26.8.253-48.107-8.577-63.92-26.49-15.813-17.913-23.883-44.087-24.21-78.52l-.58-60.56c-.327-34.3 7.18-60.633 22.52-79 15.34-18.367 36.397-27.66 63.17-27.88 26.667-.26 47.913 8.63 63.74 26.67 15.827 18.04 23.913 44.203 24.26 78.49l.54 60.58zm-44.84-66.91c-.2-21.687-3.99-37.687-11.37-48-7.38-10.313-18.047-15.42-32-15.32-13.947.133-24.477 5.443-31.59 15.93-7.113 10.487-10.567 26.57-10.36 48.25l.71 73.59c.207 21.8 4.03 37.903 11.47 48.31 7.44 10.407 18.127 15.543 32.06 15.41 13.94-.127 24.44-5.433 31.5-15.92 7.06-10.487 10.48-26.693 10.26-48.62l-.68-73.63z" class="Vector_32"/>
        <g class="Group_2" opacity=".4">
          <path fill="#000" d="M399.54 244.58c.327 34.44-7.18 60.773-22.52 79-15.34 18.227-36.34 27.463-63 27.71-26.8.253-48.107-8.577-63.92-26.49-15.813-17.913-23.883-44.087-24.21-78.52l-.58-60.56c-.327-34.3 7.18-60.633 22.52-79 15.34-18.367 36.397-27.66 63.17-27.88 26.667-.26 47.913 8.63 63.74 26.67 15.827 18.04 23.913 44.203 24.26 78.49l.54 60.58zm-44.84-66.91c-.2-21.687-3.99-37.687-11.37-48-7.38-10.313-18.047-15.42-32-15.32-13.947.133-24.477 5.443-31.59 15.93-7.113 10.487-10.567 26.57-10.36 48.25l.71 73.59c.207 21.8 4.03 37.903 11.47 48.31 7.44 10.407 18.127 15.543 32.06 15.41 13.94-.127 24.44-5.433 31.5-15.92 7.06-10.487 10.48-26.693 10.26-48.62l-.68-73.63z" class="Vector_33" opacity=".4"/>
        </g>
        <path fill="#3D3ADA" d="M425 244.34c.333 34.427-7.173 60.76-22.52 79-15.347 18.24-36.347 27.473-63 27.7-26.787.26-48.09-8.567-63.91-26.48-15.82-17.913-23.9-44.1-24.24-78.56l-.58-60.56c-.333-34.307 7.173-60.64 22.52-79s36.413-27.657 63.2-27.89c26.667-.247 47.91 8.643 63.73 26.67s23.893 44.2 24.22 78.52l.58 60.6zm-44.84-66.92c-.2-21.68-3.99-37.68-11.37-48-7.38-10.32-18.047-15.427-32-15.32-13.94.127-24.467 5.437-31.58 15.93-7.113 10.493-10.567 26.577-10.36 48.25l.71 73.58c.213 21.807 4.037 37.913 11.47 48.32 7.433 10.407 18.12 15.543 32.06 15.41 13.94-.127 24.44-5.437 31.5-15.93 7.06-10.493 10.487-26.713 10.28-48.66l-.71-73.58z" class="Vector_34"/>
        <path fill="#3D3ADA" d="M250.93 189.05c0 .13-5.86 2.48-13.21 5.24-7.35 2.76-13.33 4.89-13.38 4.75-.05-.14 5.86-2.48 13.2-5.24 7.34-2.76 13.34-4.89 13.39-4.75z" class="Vector_35"/>
        <path fill="#3D3ADA" d="M252.4 213c0 .13-5.86 2.48-13.21 5.24-7.35 2.76-13.34 4.89-13.39 4.75-.05-.14 5.87-2.48 13.21-5.24 7.34-2.76 13.34-4.91 13.39-4.75z" class="Vector_36"/>
        <path fill="#3D3ADA" d="M253.87 236.91c0 .13-5.86 2.48-13.21 5.24-7.35 2.76-13.34 4.89-13.39 4.75-.05-.14 5.86-2.48 13.21-5.24 7.35-2.76 13.34-4.89 13.39-4.75z" class="Vector_37"/>
        <path fill="#3D3ADA" d="M255.34 260.84c0 .13-5.87 2.48-13.21 5.24-7.34 2.76-13.34 4.89-13.39 4.75-.05-.14 5.86-2.48 13.21-5.24 7.35-2.76 13.34-4.89 13.39-4.75z" class="Vector_38"/>
        <path fill="#3D3ADA" d="M256.81 284.77a4.432 4.432 0 01-.92.45c-.6.26-1.48.62-2.56 1-2.18.87-5.19 2-8.54 3.29-3.35 1.29-6.37 2.37-8.58 3.14-1.11.39-2 .7-2.62.9a3.606 3.606 0 01-1 .26c.284-.187.589-.338.91-.45.61-.26 1.48-.62 2.57-1.05 2.17-.87 5.19-2 8.53-3.29 3.34-1.29 6.38-2.36 8.59-3.14 1.1-.39 2-.7 2.62-.9.321-.119.658-.19 1-.21z" class="Vector_39"/>
        <path fill="#3D3ADA" d="M263.64 306.66c-.962.524-1.965.969-3 1.33-1.89.76-4.52 1.78-7.43 2.88-2.91 1.1-5.57 2.06-7.49 2.73-1.024.42-2.081.755-3.16 1 .962-.525 1.965-.97 3-1.33 1.89-.76 4.52-1.78 7.43-2.88 2.91-1.1 5.57-2.06 7.49-2.73a19.792 19.792 0 013.16-1z" class="Vector_40"/>
        <path fill="#3D3ADA" d="M278.27 326.74c-.858.484-1.759.889-2.69 1.21-1.69.68-4 1.59-6.63 2.57-2.63.98-4.95 1.83-6.67 2.43a16.93 16.93 0 01-2.82.86 16.271 16.271 0 012.69-1.21c1.68-.68 4-1.59 6.62-2.57 2.62-.98 5-1.83 6.68-2.43.912-.372 1.856-.66 2.82-.86z" class="Vector_41"/>
        <path fill="#3D3ADA" d="M302.58 339.91a18.23 18.23 0 01-2.69 1.2c-1.69.69-4 1.6-6.62 2.57-2.62.97-5 1.84-6.68 2.43-.91.375-1.855.663-2.82.86.86-.478 1.76-.879 2.69-1.2 1.68-.69 4-1.6 6.62-2.57 2.62-.97 5-1.83 6.68-2.43a15.453 15.453 0 012.82-.86z" class="Vector_42"/>
        <path fill="#3D3ADA" d="M375.9 288.85c.06.13-7.53 3.67-16.95 7.9-9.42 4.23-17.11 7.56-17.17 7.43-.06-.13 7.53-3.67 17-7.9 9.47-4.23 17.06-7.57 17.12-7.43z" class="Vector_43"/>
        <path fill="#3D3ADA" d="M380.88 268.34c.06.13-6.21 3.08-14 6.58s-14.15 6.23-14.2 6.1c-.05-.13 6.2-3.08 14-6.58s14.14-6.23 14.2-6.1z" class="Vector_44"/>
        <path fill="#3D3ADA" d="M383.17 245.31c.06.13-6.21 3.07-14 6.57-7.79 3.5-14.17 6.24-14.17 6.12 0-.12 6.2-3.08 14-6.58s14.11-6.24 14.17-6.11z" class="Vector_45"/>
        <path fill="#3D3ADA" d="M385.46 222.28c.06.13-6.21 3.07-14 6.57-7.79 3.5-14.15 6.24-14.21 6.11-.06-.13 6.2-3.08 14-6.58s14.15-6.24 14.21-6.1z" class="Vector_46"/>
        <path fill="#3D3ADA" d="M387.75 199.24c.06.13-6.2 3.08-14 6.58s-14.15 6.23-14.21 6.1c-.06-.13 6.21-3.07 14-6.57 7.79-3.5 14.15-6.24 14.21-6.11z" class="Vector_47"/>
        <path fill="#3D3ADA" d="M383.17 178.73c.06.13-6.21 3.08-14 6.58s-14.17 6.23-14.17 6.1c0-.13 6.2-3.07 14-6.58 7.8-3.51 14.11-6.23 14.17-6.1z" class="Vector_48"/>
        <path fill="#3D3ADA" d="M383.17 156.65c.06.13-6.21 3.08-14 6.58s-14.17 6.23-14.17 6.1c0-.13 6.2-3.07 14-6.58 7.8-3.51 14.11-6.23 14.17-6.1z" class="Vector_49"/>
        <path fill="#3D3ADA" d="M380.88 135.86c.06.13-6.21 3.08-14 6.58s-14.15 6.23-14.2 6.1c-.05-.13 6.2-3.08 14-6.58s14.14-6.23 14.2-6.1z" class="Vector_50"/>
        <path fill="#3D3ADA" d="M361.13 121.38a87.796 87.796 0 01-8.48 4.09 84.822 84.822 0 01-8.68 3.62 84.027 84.027 0 018.47-4.1 81.448 81.448 0 018.69-3.61z" class="Vector_51"/>
        <path fill="#3D3ADA" d="M350.56 112.5a83.82 83.82 0 01-8.47 4.1 80.793 80.793 0 01-8.68 3.61 85.472 85.472 0 018.47-4.09 87.052 87.052 0 018.68-3.62z" class="Vector_52"/>
        <path fill="#3D3ADA" d="M252.06 160c.05.14-5.86 2.48-13.2 5.24-7.34 2.76-13.34 4.89-13.39 4.76-.05-.13 5.86-2.49 13.2-5.25 7.34-2.76 13.33-4.84 13.39-4.75z" class="Vector_53"/>
        <path fill="#3D3ADA" d="M259.42 130.2c.05.13-6.36 2.67-14.31 5.66s-14.46 5.3-14.51 5.17c-.05-.13 6.36-2.67 14.32-5.66s14.45-5.31 14.5-5.17z" class="Vector_54"/>
        <path fill="#3D3ADA" d="M278.65 100.66c.05.14-8.08 3.32-18.16 7.1s-18.29 6.75-18.34 6.62c-.05-.13 8.08-3.32 18.16-7.1s18.28-6.75 18.34-6.62z" class="Vector_55"/>
        <path fill="#3D3ADA" d="M420.69 289.18l-.42-.15-1.2-.46c-.53-.2-1.22-.34-2-.57a19.487 19.487 0 00-2.83-.34c-4.27-.28-10.67 1.28-16.86 5.91a47.622 47.622 0 00-8.93 8.83c-2.87 3.51-5.68 7.48-8.87 11.49A52.808 52.808 0 01368 325.06a41.866 41.866 0 01-16 6.46 41.099 41.099 0 01-17.18-.58 80.634 80.634 0 01-15.06-5.59c-4.65-2.15-9-4.34-13.15-6.15a69.148 69.148 0 00-11.92-4.05 43.993 43.993 0 00-10.3-1.19c-2.617.026-5.22.379-7.75 1.05a28.46 28.46 0 00-4.61 1.81l-1.14.61-.4.19c.114-.093.238-.174.37-.24l1.12-.65a25.63 25.63 0 014.61-1.91 30.728 30.728 0 017.8-1.15 43.967 43.967 0 0110.39 1.12c4.115.961 8.132 2.3 12 4 4.18 1.79 8.53 4 13.17 6.11a81.597 81.597 0 0015 5.53 40.512 40.512 0 0017 .55 41.261 41.261 0 0015.75-6.37 52.279 52.279 0 0011.44-11c3.19-4 6-7.95 8.9-11.46a48.306 48.306 0 019.05-8.86c6.28-4.64 12.77-6.16 17.09-5.82.959.06 1.912.194 2.85.4.8.24 1.49.4 2 .62l1.19.51c.164.039.322.099.47.18z" class="Vector_56"/>
        <path fill="#3D3ADA" d="M427 222.43s-.72.15-1.95.56a19.308 19.308 0 00-4.83 2.58c-1.9 1.33-4 3.19-6.41 5.12a46.618 46.618 0 01-8.59 5.28 47.326 47.326 0 01-17.67 4.57c-1.16.09-2.23.06-3.16.08-.93.02-1.73-.05-2.39-.1l-1.5-.16a1.91 1.91 0 01-.52-.09 2.76 2.76 0 01.53 0l1.5.05h2.38c.92-.05 2 0 3.14-.16A49.071 49.071 0 00405 235.5a47.636 47.636 0 008.53-5.19c2.43-1.89 4.54-3.73 6.49-5a17.969 17.969 0 015-2.48c.486-.14.98-.247 1.48-.32a2.07 2.07 0 01.5-.08z" class="Vector_57"/>
        <path fill="#3D3ADA" d="M296.37 245.6a2.09 2.09 0 01-.55-.08c-.35-.08-.89-.16-1.55-.34a24.328 24.328 0 01-5.36-2.35 55.354 55.354 0 01-7-5.12c-2.51-2.07-5.19-4.45-8.26-6.57a28.932 28.932 0 00-23.73-4.29c-1.33.34-2 .6-2.06.55.153-.104.322-.182.5-.23.493-.199.997-.369 1.51-.51a25.28 25.28 0 015.75-1 28.165 28.165 0 0118.32 5.1c3.11 2.15 5.79 4.54 8.28 6.63a57.334 57.334 0 006.88 5.17 26.049 26.049 0 005.23 2.47c.689.153 1.37.344 2.04.57z" class="Vector_58"/>
        <path fill="#3D3ADA" d="M296.55 151.07c-.538.25-1.097.454-1.67.61-.54.19-1.21.4-2 .6-.79.2-1.67.46-2.68.64-1.01.18-2.1.43-3.3.58-1.2.15-2.47.29-3.82.41a59.29 59.29 0 01-8.8-.1 58.591 58.591 0 01-8.67-1.54c-1.31-.37-2.55-.7-3.68-1.12-1.13-.42-2.19-.79-3.13-1.18-.94-.39-1.78-.79-2.52-1.14-.74-.35-1.35-.67-1.85-1a11.57 11.57 0 01-1.52-.91c.554.204 1.092.448 1.61.73.51.26 1.14.56 1.88.87.74.31 1.58.72 2.54 1.06.96.34 2 .76 3.13 1.11 1.13.35 2.36.71 3.66 1.06a56.138 56.138 0 0017.32 1.63c1.34-.1 2.61-.18 3.8-.36s2.28-.33 3.28-.51 1.89-.39 2.68-.57c.79-.18 1.47-.34 2-.5a12.76 12.76 0 011.74-.37z" class="Vector_59"/>
        <path fill="#3D3ADA" d="M421.32 150.82s-.15-.06-.42-.2l-1.16-.67c-.6-.371-1.221-.705-1.86-1-.74-.36-1.56-.82-2.53-1.19l-1.5-.62c-.53-.22-1.1-.38-1.67-.58-1.15-.42-2.42-.71-3.74-1a41.167 41.167 0 00-17.68-.16c-1.33.32-2.61.59-3.76 1-.58.19-1.15.34-1.68.54l-1.51.6c-.869.34-1.72.723-2.55 1.15a17.52 17.52 0 00-1.88 1l-1.17.65a2.27 2.27 0 01-.43.2s.12-.12.38-.29l1.12-.74c.592-.395 1.21-.749 1.85-1.06a27.499 27.499 0 012.54-1.23l1.51-.63c.53-.22 1.11-.38 1.69-.58 1.245-.4 2.51-.733 3.79-1a40.107 40.107 0 0117.89.16c1.34.36 2.62.67 3.77 1.11.58.21 1.15.39 1.67.61l1.51.66c.861.38 1.702.804 2.52 1.27.63.326 1.238.694 1.82 1.1l1.11.76c.128.032.252.079.37.14z" class="Vector_60"/>
        <path fill="#3D3ADA" d="M360.18 82.9a6.32 6.32 0 01-.72.43l-2.12 1.15c-1.85 1-4.53 2.4-7.89 4.07-6.7 3.32-16.12 7.84-27.25 10.66a73.975 73.975 0 01-16 2.22 57.406 57.406 0 01-13.13-1.12 46.25 46.25 0 01-8.5-2.6c-1-.38-1.69-.78-2.2-1a4.607 4.607 0 01-.74-.39c.271.077.536.177.79.3.51.19 1.24.56 2.23.91a49.14 49.14 0 008.49 2.42 58.392 58.392 0 0013.05 1 76.248 76.248 0 0015.87-2.24c11.07-2.81 20.48-7.26 27.22-10.49l8-3.92 2.16-1.07c.238-.129.485-.239.74-.33z" class="Vector_61"/>
        <path fill="#3D3ADA" d="M159.44 257.13l33.43 1.46-1.55 35.41-33.43-1.46-2.57 58.87-44-1.92 2.57-58.87-113.56-5 .09-27 121-173.8 45.43 2-7.41 170.31zm-115-5l71.05 3.1 4.68-107.38-1.07-.41-4 7.65-70.66 97.04z" class="Vector_62"/>
        <g class="Group_3" opacity=".4">
          <path fill="#000" d="M159.44 257.13l33.43 1.46-1.55 35.41-33.43-1.46-2.57 58.87-44-1.92 2.57-58.87-113.56-5 .09-27 121-173.8 45.43 2-7.41 170.31zm-115-5l71.05 3.1 4.68-107.38-1.07-.41-4 7.65-70.66 97.04z" class="Vector_63" opacity=".4"/>
        </g>
        <path fill="#3D3ADA" d="M187.39 258.35l33.44 1.46-1.55 35.43-33.43-1.46-2.57 58.87-44-1.92 2.57-58.87-113.56-5 .09-27 121-173.8 45.43 2-7.42 170.29zm-115-5l71 3.1 4.69-107.38-1.07-.41-4 7.65-70.62 97.04z" class="Vector_64"/>
        <path fill="#3D3ADA" d="M29 265.05a4.929 4.929 0 01-1.08.61c-.71.36-1.75.86-3 1.47-2.58 1.2-6.16 2.82-10.17 4.51S7 274.78 4.36 275.79c-1.33.5-2.42.9-3.17 1.16a6.662 6.662 0 01-1.19.35c.353-.22.728-.401 1.12-.54l3.1-1.31 10.26-4.29 10.22-4.37 3.11-1.32a5.98 5.98 0 011.19-.42z" class="Vector_65"/>
        <path fill="#3D3ADA" d="M45.25 235.11c-.485.297-.99.561-1.51.79-1 .48-2.42 1.16-4.2 2-3.57 1.63-8.53 3.8-14 6.13-5.47 2.33-10.54 4.33-14.2 5.76-1.82.71-3.34 1.27-4.34 1.64-.526.217-1.068.394-1.62.53a9.935 9.935 0 011.55-.72l4.27-1.79 14.11-5.93 14.08-6 4.27-1.81a8.449 8.449 0 011.59-.6z" class="Vector_66"/>
        <path fill="#3D3ADA" d="M65.11 208.41c-.502.304-1.027.568-1.57.79-1 .48-2.53 1.16-4.39 2-3.73 1.63-8.9 3.8-14.65 6.13s-11 4.36-14.78 5.79c-1.9.71-3.45 1.27-4.52 1.64-.548.221-1.113.395-1.69.52a13.482 13.482 0 011.62-.71l4.46-1.8 14.72-5.93 14.69-6 4.46-1.84a9.764 9.764 0 011.65-.59z" class="Vector_67"/>
        <path fill="#3D3ADA" d="M144.71 239.25a6.09 6.09 0 01-1.09.58c-.71.35-1.76.83-3.05 1.42-2.58 1.16-6.18 2.72-10.19 4.34-4.01 1.62-7.68 3-10.34 4-1.34.48-2.42.86-3.18 1.11-.38.162-.781.273-1.19.33a5.904 5.904 0 011.12-.52l3.11-1.26 10.28-4.11 10.25-4.2c1.23-.5 2.27-.93 3.11-1.26a4.98 4.98 0 011.17-.43z" class="Vector_68"/>
        <path fill="#3D3ADA" d="M141.47 294.18a4.861 4.861 0 01-1.05.59c-.69.35-1.7.83-2.95 1.41-2.5 1.17-6 2.72-9.87 4.35-3.87 1.63-7.45 3-10 4-1.29.48-2.34.86-3.07 1.11a6.218 6.218 0 01-1.16.33 5.37 5.37 0 011.08-.52l3-1.26 10-4.11 9.92-4.2 3-1.27a6.242 6.242 0 011.1-.43z" class="Vector_69"/>
        <path fill="#3D3ADA" d="M141 313.44a5.506 5.506 0 01-1 .58c-.69.35-1.7.83-3 1.42-2.5 1.16-6 2.72-9.88 4.34-3.88 1.62-7.44 3-10 4-1.29.48-2.34.85-3.08 1.1-.37.153-.756.267-1.15.34.337-.22.7-.398 1.08-.53l3-1.26 10-4.11 9.93-4.2 3-1.26c.35-.181.719-.322 1.1-.42z" class="Vector_70"/>
        <path fill="#3D3ADA" d="M140.55 332.69a5.16 5.16 0 01-1.05.59c-.69.35-1.7.83-2.95 1.41-2.51 1.17-6 2.72-9.88 4.35-3.88 1.63-7.44 3-10 4-1.3.48-2.35.86-3.08 1.11a5.973 5.973 0 01-1.15.33c.338-.216.7-.391 1.08-.52l3-1.26 10-4.11 9.93-4.2 3-1.26a5.874 5.874 0 011.1-.44z" class="Vector_71"/>
        <path fill="#3D3ADA" d="M145.23 218.9a5.655 5.655 0 01-1.09.59c-.71.35-1.76.83-3 1.41-2.58 1.17-6.18 2.72-10.19 4.35-4.01 1.63-7.68 3-10.34 4-1.34.48-2.42.86-3.18 1.11a6.362 6.362 0 01-1.18.33 5.225 5.225 0 011.11-.52l3.12-1.26 10.28-4.11 10.24-4.2 3.11-1.27a5.608 5.608 0 011.12-.43z" class="Vector_72"/>
        <path fill="#3D3ADA" d="M145.75 198.56a6.555 6.555 0 01-1.09.59c-.71.35-1.75.83-3 1.41-2.58 1.17-6.18 2.72-10.19 4.35-4.01 1.63-7.68 3-10.34 4-1.34.48-2.42.86-3.18 1.1a6.054 6.054 0 01-1.18.34 4.859 4.859 0 011.11-.53l3.12-1.26 10.28-4.11 10.24-4.2 3.11-1.26a5.631 5.631 0 011.12-.43z" class="Vector_73"/>
        <path fill="#3D3ADA" d="M146.27 178.22a5.801 5.801 0 01-1 .56c-.68.33-1.67.8-2.9 1.36-2.46 1.11-5.88 2.6-9.7 4.15-3.82 1.55-7.32 2.86-9.86 3.77l-3 1.05c-.368.143-.75.247-1.14.31.335-.204.69-.371 1.06-.5l3-1.21 9.79-3.91 9.76-4 3-1.2c.316-.162.647-.289.99-.38z" class="Vector_74"/>
        <path fill="#3D3ADA" d="M148.56 159.21a28.826 28.826 0 01-5 2.13 27.853 27.853 0 01-5.19 1.65 28.826 28.826 0 015-2.13 27.853 27.853 0 015.19-1.65z" class="Vector_75"/>
        <path fill="#3D3ADA" d="M85 180.72c-.506.306-1.034.573-1.58.8-1 .48-2.53 1.15-4.39 2-3.72 1.62-8.9 3.79-14.64 6.12s-11 4.37-14.78 5.79c-1.9.71-3.45 1.27-4.52 1.65a13.84 13.84 0 01-1.69.52 11.146 11.146 0 011.61-.71l4.47-1.8 14.71-5.93 14.7-6 4.45-1.82a13.112 13.112 0 011.66-.62z" class="Vector_76"/>
        <path fill="#3D3ADA" d="M104.79 153c-.508.299-1.036.563-1.58.79-1 .48-2.53 1.16-4.39 2-3.72 1.63-8.9 3.8-14.64 6.13s-11 4.36-14.79 5.79c-1.9.71-3.44 1.27-4.52 1.64a10.07 10.07 0 01-1.68.52 11.977 11.977 0 011.61-.71l4.46-1.8L84 161.44l14.7-6 4.45-1.81a9.362 9.362 0 011.64-.63z" class="Vector_77"/>
        <path fill="#3D3ADA" d="M123.12 125.35c-.506.305-1.034.573-1.58.8-1 .48-2.53 1.15-4.39 2-3.72 1.63-8.9 3.8-14.64 6.13s-11 4.37-14.78 5.79c-1.9.71-3.45 1.27-4.52 1.64-.55.214-1.115.391-1.69.53a11.146 11.146 0 011.61-.71l4.46-1.8 14.72-5.93 14.7-6 4.45-1.82c.538-.249 1.093-.46 1.66-.63z" class="Vector_78"/>
        <path fill="#3D3ADA" d="M142.19 98.73c-.5.31-1.025.578-1.57.8-1 .48-2.53 1.15-4.39 2-3.73 1.62-8.9 3.79-14.65 6.12s-11 4.37-14.78 5.79c-1.9.72-3.45 1.27-4.52 1.65a11.11 11.11 0 01-1.69.52 11.782 11.782 0 011.62-.71l4.46-1.8 14.72-5.93 14.69-6 4.46-1.82a12.85 12.85 0 011.65-.62z" class="Vector_79"/>
        <path fill="#3D3ADA" d="M192.82 139.41a5.866 5.866 0 01-.58.65 21.36 21.36 0 01-1.81 1.75 32.096 32.096 0 01-7.78 5 33.823 33.823 0 01-13.35 3 31.314 31.314 0 01-8.09-.9 41.746 41.746 0 01-8.18-3.06c-5.37-2.62-10.15-5.71-14.83-7.86a33.9 33.9 0 00-13.09-3.42 19.408 19.408 0 00-8.93 1.67c-.753.358-1.479.772-2.17 1.24-.232.178-.48.336-.74.47.213-.2.441-.383.68-.55.67-.513 1.386-.962 2.14-1.34a18.995 18.995 0 019-1.85 33.75 33.75 0 0113.29 3.35c4.72 2.14 9.51 5.23 14.85 7.83a41.758 41.758 0 008.07 3 31.21 31.21 0 008 .92 34.096 34.096 0 0013.21-2.9 33.405 33.405 0 007.8-4.83c.85-.68 1.45-1.28 1.86-1.67.2-.187.418-.355.65-.5z" class="Vector_80"/>
        <path fill="#3D3ADA" d="M178.9 90c-.4.284-.825.532-1.27.74-.83.46-2.07 1-3.63 1.7a54.907 54.907 0 01-5.6 2 61.333 61.333 0 01-14.35 2.27c-1.981.07-3.964.03-5.94-.12a38.318 38.318 0 01-4-.46 8.437 8.437 0 01-1.44-.29c.492-.017.984.013 1.47.09.93.11 2.29.22 4 .3 1.71.08 3.69.09 5.9 0a67.804 67.804 0 007.19-.74 66.664 66.664 0 007.05-1.58c2.13-.62 4-1.26 5.59-1.88 1.59-.62 2.82-1.14 3.68-1.54a8.131 8.131 0 011.35-.49z" class="Vector_81"/>
        <path fill="#3D3ADA" d="M107.9 201a7.361 7.361 0 01-.9-1l-2.37-2.82a112.128 112.128 0 00-8.37-8.75 30.09 30.09 0 00-5.25-4 15.752 15.752 0 00-5-1.95 14.379 14.379 0 00-5 0s.1-.06.32-.13c.325-.107.66-.184 1-.23a11.213 11.213 0 013.71 0c1.834.314 3.598.951 5.21 1.88a28.742 28.742 0 015.36 4.07 88.806 88.806 0 018.31 8.9c1 1.21 1.74 2.22 2.24 2.93.287.338.535.707.74 1.1z" class="Vector_82"/>
        <path fill="#3D3ADA" d="M187.67 231.24a2.769 2.769 0 01-.39.3c-.27.17-.66.46-1.19.76a27.973 27.973 0 01-4.69 2.23 30.613 30.613 0 01-32-6.55 28.56 28.56 0 01-3.43-3.89c-.37-.49-.61-.9-.79-1.17-.18-.27-.26-.42-.24-.43.02-.01.43.53 1.19 1.48a32.336 32.336 0 003.53 3.74 31.092 31.092 0 0031.59 6.47 32.728 32.728 0 004.71-2.06 16.134 16.134 0 011.71-.88z" class="Vector_83"/>
        <path fill="#3D3ADA" d="M216.8 294.55s-.1-.15-.28-.46l-.8-1.39a39.045 39.045 0 00-3.42-5.07l-1.36-1.6-.73-.87-.85-.83-1.8-1.77-2.1-1.75a47.26 47.26 0 00-11-6.53 45.102 45.102 0 00-15-3.49 41.929 41.929 0 00-17.43 2.8c-5.85 2.3-11.5 5.78-17.48 9.14a84.797 84.797 0 01-9.39 4.65 38.012 38.012 0 01-10.45 2.74 33.879 33.879 0 01-10.79-.65 48.038 48.038 0 01-9.93-3.39 104.32 104.32 0 01-16.93-10.28c-5.13-3.65-10-7.17-14.81-10A53.984 53.984 0 0058 259.73a36.717 36.717 0 00-12.71-.84 26.86 26.86 0 00-9.23 2.68c-1.81.924-3.49 2.08-5 3.44l-1.13 1.13c-.25.25-.39.37-.39.37s.11-.14.35-.4l1.1-1.17a22.194 22.194 0 015-3.55 26.766 26.766 0 019.3-2.79 37 37 0 0112.83.77 53.82 53.82 0 0114.36 6.07c4.87 2.81 9.73 6.33 14.87 10a103.041 103.041 0 0016.85 10.2A47.795 47.795 0 00114 289c3.486.779 7.075.995 10.63.64A38.45 38.45 0 00135 286.9a82.69 82.69 0 009.33-4.62c6-3.34 11.65-6.82 17.55-9.14a39.816 39.816 0 014.46-1.44c.75-.19 1.49-.41 2.23-.57l2.24-.37a42.775 42.775 0 018.7-.4 45.71 45.71 0 0115.17 3.58 47.524 47.524 0 0111 6.64l2.1 1.78c.627.62 1.227 1.22 1.8 1.8l.84.84.73.88 1.35 1.63a35.94 35.94 0 013.35 5.14l.75 1.41.2.49z" class="Vector_84"/>
        <path fill="#3D3ADA" d="M186.58 336.32a2.183 2.183 0 01-.51.13l-1.48.29c-.777.153-1.562.266-2.35.34-.93.09-2 .25-3.14.27l-1.84.08h-2c-1.37 0-2.84-.13-4.38-.25a60.463 60.463 0 01-9.87-1.92 58.963 58.963 0 01-9.36-3.68c-1.36-.73-2.67-1.39-3.83-2.14-.58-.37-1.16-.69-1.69-1.06l-1.5-1.05c-1-.65-1.78-1.34-2.51-1.92a23.51 23.51 0 01-1.8-1.55l-1.09-1c-.247-.24-.367-.37-.36-.39.155.086.299.19.43.31l1.16 1c.49.42 1.1.93 1.85 1.48.75.55 1.55 1.22 2.53 1.84l1.51 1c.53.35 1.11.66 1.69 1 1.16.72 2.47 1.37 3.83 2.08a62.423 62.423 0 009.29 3.61 61.535 61.535 0 009.77 1.94c1.53.13 3 .29 4.34.3.69 0 1.35.06 2 0h1.82c1.16 0 2.21-.13 3.13-.19.92-.06 1.71-.16 2.35-.25l1.49-.19c.168-.052.344-.079.52-.08z" class="Vector_85"/>
        <path fill="#3D3ADA" d="M593.69 257.54l33.31-3.25 3.45 35.29-33.3 3.26 5.73 58.64-43.8 4.29-5.74-58.65-113.12 11.07-3.71-26.73 95.35-189.09L577.11 88l16.58 169.54zm-114.57 11.21l70.77-6.92-10.46-107-1.12-.26-2.86 8.14-56.33 106.04z" class="Vector_86"/>
        <g class="Group_4" opacity=".4">
          <path fill="#000" d="M593.69 257.54l33.31-3.25 3.45 35.29-33.3 3.26 5.73 58.64-43.8 4.29-5.74-58.65-113.12 11.07-3.71-26.73 95.35-189.09L577.11 88l16.58 169.54zm-114.57 11.21l70.77-6.92-10.46-107-1.12-.26-2.86 8.14-56.33 106.04z" class="Vector_87" opacity=".4"/>
        </g>
        <path fill="#3D3ADA" d="M621.55 254.82l33.3-3.26 3.45 35.3-33.3 3.26 5.73 58.64-43.8 4.24-5.73-58.6-113.13 11.06-3.71-26.72 95.35-189.09L605 85.22l16.55 169.6zM507 266l70.78-6.93-10.47-107-1.12-.25-2.89 8.18L507 266z" class="Vector_88"/>
        <path fill="#3D3ADA" d="M465.64 283.74a6.044 6.044 0 01-1 .75c-.66.46-1.61 1.1-2.8 1.88-2.39 1.56-5.71 3.66-9.44 5.9a293.76 293.76 0 01-9.64 5.56c-1.25.68-2.26 1.23-3 1.59a6.114 6.114 0 01-1.13.52 5.594 5.594 0 011-.7l2.89-1.73 9.55-5.69 9.51-5.76 2.89-1.74a5.618 5.618 0 011.17-.58z" class="Vector_89"/>
        <path fill="#3D3ADA" d="M477.54 251.8c-.43.373-.892.707-1.38 1-.91.62-2.23 1.49-3.88 2.54-3.3 2.11-7.91 5-13 8s-9.8 5.8-13.21 7.72c-1.71 1-3.1 1.73-4.06 2.24-.493.29-1.008.541-1.54.75.457-.342.938-.649 1.44-.92l4-2.38 13.09-7.82 13.09-7.9 4-2.4c.462-.313.947-.591 1.45-.83z" class="Vector_90"/>
        <path fill="#3D3ADA" d="M493.46 222.57c-.457.37-.941.704-1.45 1-.95.62-2.34 1.5-4.07 2.57-3.46 2.13-8.28 5-13.64 8.12-5.36 3.12-10.25 5.87-13.82 7.81-1.78 1-3.23 1.75-4.24 2.27a10.84 10.84 0 01-1.6.75c.476-.347.978-.658 1.5-.93l4.16-2.41 13.7-7.93 13.71-8 4.15-2.42a11.714 11.714 0 011.6-.83z" class="Vector_91"/>
        <path fill="#3D3ADA" d="M576.59 241.91a5.352 5.352 0 01-1 .73c-.66.45-1.62 1.07-2.82 1.83-2.39 1.52-5.73 3.56-9.48 5.74s-7.17 4.06-9.68 5.39c-1.25.66-2.27 1.18-3 1.53-.356.21-.735.377-1.13.5.307-.26.643-.485 1-.67l2.9-1.69 9.6-5.51 9.55-5.6 2.9-1.69a5.878 5.878 0 011.16-.56z" class="Vector_92"/>
        <path fill="#3D3ADA" d="M581.12 296.76a5.46 5.46 0 01-1 .72c-.63.45-1.56 1.07-2.72 1.82-2.31 1.5-5.54 3.53-9.17 5.69-3.63 2.16-6.94 4-9.37 5.34-1.21.66-2.2 1.18-2.89 1.53a4.482 4.482 0 01-1.1.49 6.512 6.512 0 011-.67l2.81-1.67 9.29-5.47 9.24-5.55 2.8-1.68a5.49 5.49 0 011.11-.55z" class="Vector_93"/>
        <path fill="#3D3ADA" d="M583.37 315.89a5.46 5.46 0 01-1 .72c-.63.44-1.56 1.06-2.72 1.82-2.31 1.5-5.54 3.53-9.17 5.69-3.63 2.16-6.94 4-9.37 5.34-1.21.66-2.2 1.18-2.89 1.53a4.482 4.482 0 01-1.1.49 6.512 6.512 0 011-.67l2.81-1.67 9.29-5.47 9.24-5.55 2.8-1.68a5.49 5.49 0 011.11-.55z" class="Vector_94"/>
        <path fill="#3D3ADA" d="M585.62 335a5.088 5.088 0 01-1 .73c-.63.44-1.56 1.06-2.72 1.82-2.31 1.5-5.54 3.53-9.17 5.69-3.63 2.16-6.94 4-9.37 5.34-1.21.66-2.2 1.18-2.89 1.53a4.972 4.972 0 01-1.1.49 5.744 5.744 0 011-.67l2.81-1.67 9.29-5.47 9.24-5.56 2.8-1.67c.347-.229.72-.417 1.11-.56z" class="Vector_95"/>
        <path fill="#3D3ADA" d="M574.25 221.7a5.784 5.784 0 01-1 .73c-.66.44-1.62 1.07-2.82 1.83-2.4 1.52-5.74 3.56-9.48 5.73-3.74 2.17-7.18 4.06-9.68 5.39-1.26.67-2.28 1.19-3 1.54a5.818 5.818 0 01-1.13.5 5.65 5.65 0 011-.68l2.91-1.68 9.6-5.52 9.55-5.6 2.9-1.68c.361-.23.747-.418 1.15-.56z" class="Vector_96"/>
        <path fill="#3D3ADA" d="M571.9 201.48c-.304.283-.64.532-1 .74-.66.44-1.62 1.07-2.82 1.83-2.39 1.51-5.73 3.56-9.48 5.73-3.75 2.17-7.17 4.06-9.68 5.39-1.25.66-2.27 1.19-3 1.54-.36.202-.738.37-1.13.5a5.76 5.76 0 011-.68l2.9-1.68 9.6-5.52 9.55-5.6c1.15-.67 2.13-1.23 2.9-1.69a5.564 5.564 0 011.16-.56z" class="Vector_97"/>
        <path fill="#3D3ADA" d="M569.56 181.27c-.288.27-.607.505-.95.7-.62.43-1.54 1-2.68 1.75-2.28 1.45-5.46 3.41-9 5.48-3.54 2.07-6.84 3.86-9.23 5.12-1.2.63-2.17 1.13-2.85 1.46a5.393 5.393 0 01-1.08.47 6.034 6.034 0 011-.65l2.73-1.6 9.15-5.24 9.09-5.34 2.77-1.61a5.186 5.186 0 011.05-.54z" class="Vector_98"/>
        <path fill="#3D3ADA" d="M569.16 162.13a29.099 29.099 0 01-4.66 2.87 29.991 29.991 0 01-4.91 2.36 27.724 27.724 0 014.66-2.82 28.114 28.114 0 014.91-2.41z" class="Vector_99"/>
        <path fill="#3D3ADA" d="M509.2 192.37c-.455.373-.94.707-1.45 1-.95.62-2.34 1.5-4.07 2.57-3.45 2.13-8.27 5-13.63 8.12-5.36 3.12-10.25 5.87-13.82 7.81-1.79 1-3.24 1.75-4.25 2.27a10.36 10.36 0 01-1.6.75c.478-.345.979-.655 1.5-.93l4.17-2.41 13.74-7.94 13.7-8 4.16-2.42a11.36 11.36 0 011.55-.82z" class="Vector_100"/>
        <path fill="#3D3ADA" d="M525 162.17c-.457.37-.941.704-1.45 1-1 .62-2.34 1.5-4.07 2.57-3.46 2.13-8.28 5-13.64 8.12-5.36 3.12-10.25 5.87-13.82 7.81-1.78 1-3.23 1.75-4.24 2.27a10.84 10.84 0 01-1.6.75c.476-.347.978-.658 1.5-.93l4.16-2.41 13.74-7.94 13.71-8 4.15-2.42c.499-.312 1.02-.586 1.56-.82z" class="Vector_101"/>
        <path fill="#3D3ADA" d="M539.2 132.18c-.452.372-.933.706-1.44 1-1 .62-2.35 1.5-4.08 2.57-3.45 2.13-8.27 5-13.63 8.12-5.36 3.12-10.25 5.87-13.82 7.82-1.78 1-3.24 1.74-4.25 2.26-.511.291-1.042.545-1.59.76a9.18 9.18 0 011.5-.94l4.16-2.41 13.74-7.94 13.71-8 4.15-2.42a11.95 11.95 0 011.55-.82z" class="Vector_102"/>
        <path fill="#3D3ADA" d="M554.35 103.14c-.455.372-.94.707-1.45 1-.95.62-2.34 1.5-4.07 2.56-3.46 2.14-8.28 5-13.64 8.13-5.36 3.13-10.25 5.86-13.82 7.81-1.78 1-3.23 1.74-4.25 2.26-.51.293-1.041.547-1.59.76.477-.349.978-.663 1.5-.94l4.16-2.4 13.74-7.94 13.71-8 4.15-2.43a11.09 11.09 0 011.56-.81z" class="Vector_103"/>
        <path fill="#3D3ADA" d="M610.19 136.3a4.889 4.889 0 01-.48.73 19.707 19.707 0 01-1.55 2 31.585 31.585 0 01-7 6.06 33.918 33.918 0 01-12.8 4.9 31.755 31.755 0 01-8.13.24 41.236 41.236 0 01-8.53-1.88c-5.69-1.83-10.85-4.22-15.78-5.69a34.006 34.006 0 00-13.45-1.55 19.518 19.518 0 00-8.61 2.91 15.71 15.71 0 00-2 1.54 5.282 5.282 0 01-.67.57c.182-.233.383-.45.6-.65a12.884 12.884 0 011.93-1.62 18.992 18.992 0 018.68-3.11 33.76 33.76 0 0113.63 1.45c5 1.46 10.15 3.84 15.8 5.66a41.91 41.91 0 008.42 1.86 30.88 30.88 0 008-.21 34.118 34.118 0 0012.75-4.75 33.42 33.42 0 007-5.88c.74-.79 1.26-1.47 1.61-1.92a6.49 6.49 0 01.58-.66z" class="Vector_104"/>
        <path fill="#3D3ADA" d="M589.45 89.3c-.355.337-.74.642-1.15.91-.76.57-1.9 1.32-3.36 2.2a55.092 55.092 0 01-5.26 2.76 60.631 60.631 0 01-6.79 2.62 62.283 62.283 0 01-7.08 1.72 54.668 54.668 0 01-5.9.72c-1.331.1-2.666.133-4 .1-.488.02-.978-.01-1.46-.09a9.034 9.034 0 011.46-.11c.94 0 2.3-.11 4-.27 1.7-.16 3.66-.42 5.84-.82a70.947 70.947 0 007-1.75 68.582 68.582 0 006.76-2.55c2-.92 3.81-1.82 5.27-2.65 1.46-.83 2.63-1.53 3.42-2 .393-.3.811-.564 1.25-.79z" class="Vector_105"/>
        <path fill="#3D3ADA" d="M534.78 209.24a7.082 7.082 0 01-1-.87l-2.78-2.46a113.587 113.587 0 00-9.52-7.49 30.434 30.434 0 00-5.77-3.25 15.673 15.673 0 00-5.21-1.17 14.113 14.113 0 00-4.91.66s.1-.08.3-.18c.305-.141.619-.261.94-.36a11.183 11.183 0 013.68-.49c1.85.056 3.675.442 5.39 1.14a29.123 29.123 0 015.88 3.28 88.043 88.043 0 019.48 7.64c1.14 1.06 2 2 2.63 2.58.329.291.628.616.89.97z" class="Vector_106"/>
        <path fill="#3D3ADA" d="M618 227.94a1.818 1.818 0 01-.34.35c-.24.21-.58.55-1.07.92a28.735 28.735 0 01-4.33 2.87 30.645 30.645 0 01-16.573 3.694 30.643 30.643 0 01-15.997-5.694 28.812 28.812 0 01-4-3.37c-.43-.43-.73-.8-.94-1a2.187 2.187 0 01-.3-.39c.487.404.951.835 1.39 1.29a32.748 32.748 0 004 3.21 31.146 31.146 0 0032.19 2 32.27 32.27 0 004.38-2.7c.505-.426 1.036-.82 1.59-1.18z" class="Vector_107"/>
        <path fill="#3D3ADA" d="M655.75 286.53l-.35-.42-1-1.26a39.74 39.74 0 00-4.09-4.54l-1.58-1.4-.84-.75-1-.71-2-1.5-2.33-1.43a47.208 47.208 0 00-11.78-4.92 44.983 44.983 0 00-15.39-1.34 41.796 41.796 0 00-16.86 5.22c-5.47 3.1-10.57 7.33-16 11.5a84.057 84.057 0 01-8.65 5.93 38.237 38.237 0 01-10 4.19 34.182 34.182 0 01-10.77.87 48.617 48.617 0 01-10.3-2 103.777 103.777 0 01-18.19-7.8c-5.6-2.89-10.89-5.7-16.07-7.81a53.853 53.853 0 00-15-4 36.5 36.5 0 00-12.7 1 26.929 26.929 0 00-8.77 4 23.325 23.325 0 00-4.49 4.12l-.95 1.27c-.22.29-.34.43-.34.43s.09-.16.29-.46l.92-1.31a22.879 22.879 0 014.46-4.22 26.987 26.987 0 018.81-4.06 36.713 36.713 0 0112.81-1 53.577 53.577 0 0115.07 4c5.21 2.1 10.53 4.9 16.13 7.78a102.957 102.957 0 0018.21 7.61 47.9 47.9 0 0010.2 1.93 33.44 33.44 0 0010.61-.86 37.736 37.736 0 009.82-4.13 83.587 83.587 0 008.6-5.88c5.44-4.15 10.57-8.4 16.09-11.52a38.04 38.04 0 014.21-2.05c.72-.3 1.41-.62 2.13-.88l2.16-.68a42.46 42.46 0 018.56-1.62 45.403 45.403 0 0115.52 1.41 47.188 47.188 0 0111.84 5l2.33 1.46 2 1.53 1 .72.84.76 1.57 1.42a36.89 36.89 0 014 4.63l.94 1.29c.119.154.229.314.33.48z" class="Vector_108"/>
        <path fill="#3D3ADA" d="M631.7 332.13c-.148.092-.31.16-.48.2l-1.42.49c-.75.267-1.515.49-2.29.67-.9.22-1.91.52-3.07.71l-1.8.34c-.63.11-1.29.17-2 .26-1.37.21-2.84.27-4.38.37a59.598 59.598 0 01-10-.51 60.553 60.553 0 01-9.78-2.33c-1.46-.53-2.85-1-4.1-1.58-.63-.28-1.25-.53-1.82-.81l-1.63-.83c-1.06-.51-1.95-1.08-2.75-1.55a22.092 22.092 0 01-2-1.28l-1.22-.87c-.28-.2-.42-.31-.41-.33.166.064.323.148.47.25l1.27.78c.55.35 1.23.77 2 1.2.77.43 1.71 1 2.77 1.47l1.64.8c.57.27 1.19.5 1.82.77 1.25.56 2.63 1 4.08 1.52a57.137 57.137 0 0019.65 2.82c1.53-.09 3-.13 4.35-.32.67-.08 1.33-.13 2-.23l1.79-.3c1.16-.16 2.17-.44 3.07-.63.9-.19 1.68-.4 2.3-.58l1.45-.4c.158-.054.323-.088.49-.1z" class="Vector_109"/>
        <path fill="#455A64" d="M423.46 185.67l-7-1.1-43.37-14-25.37-7.33a27.285 27.285 0 00-21.94 1.5c-12 6.11-45.06 36.88-45.06 36.88l23.81 24.55-11.21 49.68c12.55 35.69 37.12 39.77 37.12 39.77a87.095 87.095 0 0035.2-5.82c22.82-8.7 46.77-29.09 49.77-37.86 1.8-5.26 3.29-16.32 4.47-28.81L456 228.42l9.79-50-42.33 7.25z" class="Vector_110"/>
        <path fill="#263238" d="M370.7 274.11c-.103.118-.22.222-.35.31-.25.18-.59.47-1.08.79a24.69 24.69 0 01-4.34 2.33A26.474 26.474 0 01335 271a24.357 24.357 0 01-3-3.93c-.31-.49-.5-.91-.65-1.17-.15-.26-.21-.42-.19-.43.362.477.695.974 1 1.49a28.124 28.124 0 003.07 3.78 26.799 26.799 0 0029.56 6.46 28.992 28.992 0 004.37-2.16 12.673 12.673 0 011.54-.93z" class="Vector_111"/>
        <path fill="#263238" d="M357 172.65s0 .07.08.23.1.43.18.71c.15.62.36 1.55.61 2.74a67.056 67.056 0 011.43 10.23 32.427 32.427 0 01-.41 7.15 23.19 23.19 0 01-2.85 7.7 30.282 30.282 0 01-5.93 6.87c-2.35 2.1-5 4.05-7.6 6.06-5.64 4.23-11.13 8.06-16 11.54-4.87 3.48-9.23 6.6-12.69 9.21l-.12.09-.1-.09a76.519 76.519 0 01-6.95-6.25 17.88 17.88 0 01-1.62-1.92c-.17-.22-.28-.42-.36-.54l-.1-.2c.192.22.372.451.54.69a23.026 23.026 0 001.68 1.84 86.088 86.088 0 007 6.11h-.22c3.44-2.67 7.74-5.84 12.63-9.33 4.89-3.49 10.37-7.34 16-11.57 2.65-2 5.25-3.95 7.58-6a30.247 30.247 0 005.86-6.74 22.565 22.565 0 002.83-7.53 32.32 32.32 0 00.47-7 72.572 72.572 0 00-1.26-10.21c-.22-1.16-.39-2.09-.52-2.76-.05-.29-.09-.52-.12-.72a.742.742 0 01-.04-.31z" class="Vector_112"/>
        <path fill="#263238" d="M545.3 195.16c10.16-8.71 13.6-24.37 8-36.53l-14.3-1.47a20.432 20.432 0 0010.4-20.59 27.31 27.31 0 01-31.23 5.75c-6.69-3.3-12.1-9.45-19.44-10.74-6.66-1.17-13.21 1.95-19.59 4.22-6.38 2.27-14.1 3.51-19.38-.71-4.19-3.36-5.48-9.23-5.21-14.58.27-5.35 1.82-10.58 2.15-15.94a36.154 36.154 0 00-11.59-28.21A27.458 27.458 0 00402 62.64c-3.13 2.43-5.77 5.55-9.32 7.3-4 2-8.67 2-13 3s-8.89 3.94-9.35 8.39l-1.75 9.11a20.122 20.122 0 01-1 1.92c-3.69 6.47-11.23 10.72-12.87 18-.93 4.07.22 8.47-1.15 12.41-1.81 5.19-7.41 8.11-10 12.94-3.58 6.64-1.15 18.27 4.58 23.18s17.54 10.1 24.92 11.66c2-7.67 3.77-15.86 5.48-24.26 3 2.89 6.16 5.65 9.3 8.37 8.22 7.14 16.61 14.39 22.31 23.67 10.83 17.62 11 41 24.65 56.53 2.67 3.05 5.92 5.77 9.8 6.94 3.88 1.17 8.48.56 11.35-2.31 3.39-3.38 3.83-9.07 7.57-12.05 5-3.95 12.27-.8 17.62 2.63 3.88 2.48 7.76 5.1 12.15 6.46 4.39 1.36 9.51 1.27 13.25-1.41 3.74-2.68 5.38-8.4 2.68-12.13-1.08-1.49-2.69-2.53-3.76-4-1.07-1.47-1.38-3.87.09-5s3.88 0 5.63 1a33.508 33.508 0 0028.679 2.53 33.508 33.508 0 0020.051-20.66 27.824 27.824 0 01-14.61-1.7z" class="Vector_113"/>
        <path fill="#263238" d="M536.4 116.68c.457.338.888.709 1.29 1.11a14.884 14.884 0 012.95 3.89 11.22 11.22 0 011.1 3.37 7.994 7.994 0 01-3.56 7.91 6.003 6.003 0 01-2.52.9 5.778 5.778 0 01-2.8-.4c-3.71-1.52-5.58-5.8-9.59-7.72s-8.91-2.21-13.72-1.11c-4.81 1.1-9.48 3.72-14.21 6.37s-9.76 5.51-15.55 6.5a21.654 21.654 0 01-8.6-.06 16.325 16.325 0 01-4-1.48 15.017 15.017 0 01-3.36-2.48 19.11 19.11 0 01-4.31-6.82 31.193 31.193 0 01-1.76-7.52c-.53-5-.11-9.79-.06-14.23.2-4.111-.208-8.229-1.21-12.22a28.477 28.477 0 00-1.91-5 28.772 28.772 0 00-2.43-4.12 30.898 30.898 0 00-5.11-5.71 32.486 32.486 0 00-3.89-2.86l-1.09-.65a1.873 1.873 0 01-.36-.23c.136.05.267.114.39.19l1.11.6a29.633 29.633 0 019.21 8.51 28.185 28.185 0 012.48 4.15 27.939 27.939 0 012 5 41.896 41.896 0 011.29 12.32c0 4.46-.43 9.22.11 14.17a29.994 29.994 0 001.75 7.4 18.476 18.476 0 004.2 6.63 14.506 14.506 0 003.24 2.4 16.234 16.234 0 003.85 1.43c2.769.572 5.624.589 8.4.05 5.68-1 10.66-3.79 15.39-6.43 4.73-2.64 9.4-5.27 14.36-6.39a24.396 24.396 0 017.32-.62c1.182.078 2.353.265 3.5.56a16.48 16.48 0 013.2 1.25c4.14 2 6 6.34 9.52 7.76a5.359 5.359 0 005-.45 7.708 7.708 0 003.49-7.59 11.06 11.06 0 00-1-3.31 15.692 15.692 0 00-2.84-3.91c-.39-.4-.7-.69-.91-.88a2.081 2.081 0 01-.36-.28z" class="Vector_114"/>
        <path fill="#263238" d="M372.93 174.4a4.037 4.037 0 01-.08-.45 7.79 7.79 0 00-.27-1.31 11.155 11.155 0 00-2.45-4.46 19.104 19.104 0 00-6.64-4.61c-2.9-1.32-6.49-2-10.43-2.72-3.94-.72-8.41-1.58-12.43-4.26a18.452 18.452 0 01-2.94-28.11c4.14-4.25 10-6.36 14.78-10.09a19.016 19.016 0 003.14-3.2 13.454 13.454 0 001.92-4c.8-2.84.73-5.81 1-8.7.11-1.448.378-2.88.8-4.27a10.648 10.648 0 012.11-3.74 15.003 15.003 0 017.15-4c2.57-.75 5.13-1.21 7.54-1.88a20.584 20.584 0 006.58-2.94 25.387 25.387 0 004.94-4.62 56.431 56.431 0 003.73-5.04c2.2-3.34 4.1-6.47 6.11-9a28.684 28.684 0 015.83-5.75 16.072 16.072 0 014.61-2.37c.571-.194 1.156-.34 1.75-.44 0 0-.61.15-1.72.54a16.893 16.893 0 00-4.52 2.43 29.148 29.148 0 00-5.72 5.77c-2 2.5-3.84 5.63-6 9a54.39 54.39 0 01-3.72 5.17 25.366 25.366 0 01-5 4.72 20.996 20.996 0 01-6.71 3c-2.43.68-5 1.16-7.52 1.9a14.53 14.53 0 00-6.92 3.85 10.18 10.18 0 00-2 3.56 19.199 19.199 0 00-.77 4.17c-.27 2.85-.19 5.85-1 8.79a13.562 13.562 0 01-2 4.12 19.15 19.15 0 01-3.24 3.31 67.88 67.88 0 01-7.69 4.88 33.536 33.536 0 00-7 5.15 18.008 18.008 0 00-4.967 14.356 18.004 18.004 0 007.787 13.044c3.9 2.64 8.34 3.47 12.25 4.26 3.91.79 7.55 1.45 10.48 2.81a19.09 19.09 0 016.67 4.75 10.932 10.932 0 012.4 4.56c.115.435.189.881.22 1.33-.06.34-.06.49-.06.49z" class="Vector_115"/>
        <path fill="#455A64" d="M452.77 84.63s-.28 0-.77-.19a21.067 21.067 0 01-2-.81 26.49 26.49 0 01-10.68-9.19 19.36 19.36 0 01-1.1-1.86c-.22-.45-.34-.71-.3-.73.04-.02.64.93 1.7 2.38a31.42 31.42 0 004.76 5.14 31.72 31.72 0 005.79 3.93c1.59.84 2.63 1.25 2.6 1.33z" class="Vector_116"/>
        <path fill="#455A64" d="M486 152.84s-.62-.16-1.75-.4a29.652 29.652 0 00-4.86-.6 64.67 64.67 0 00-7.26.21c-2.74.19-5.76.47-8.95.4-3.021 0-6.016-.563-8.83-1.66a15.556 15.556 0 01-5.92-4.32 11.002 11.002 0 01-2.27-4.39 6.725 6.725 0 01-.21-1.33 1.28 1.28 0 010-.47c.06 0 .09.64.41 1.75a11.723 11.723 0 002.36 4.2 15.69 15.69 0 005.83 4.12 24.275 24.275 0 008.65 1.58c3.15.07 6.16-.19 8.9-.36a58.813 58.813 0 017.32-.09c1.647.093 3.282.347 4.88.76.57.16 1 .3 1.28.41.28.11.42.17.42.19z" class="Vector_117"/>
        <path fill="#455A64" d="M545 198.31l-.29.13a4.211 4.211 0 01-.89.29 7.003 7.003 0 01-3.58-.16 11.488 11.488 0 01-4.8-3 19.951 19.951 0 01-3.86-6.46c-1.09-2.57-2-5.51-3.79-8.23a21.54 21.54 0 00-3.17-3.87 25.317 25.317 0 00-4.24-3.21c-6.28-3.78-14.53-5.33-23-4.84-8.47.49-16.43 2.1-23.8 2.62a47.15 47.15 0 01-19.41-2 26.896 26.896 0 01-11.12-7c-.478-.5-.923-1.031-1.33-1.59a8.97 8.97 0 01-.86-1.25c-.21-.33-.37-.59-.49-.8-.12-.21-.16-.27-.15-.28.073.078.14.161.2.25l.52.77c.269.425.57.83.9 1.21.417.547.871 1.065 1.36 1.55a27.014 27.014 0 0011.09 6.76 47.194 47.194 0 0019.25 1.88c7.33-.54 15.29-2.21 23.82-2.66 8.53-.45 16.85 1.08 23.23 4.95a25.677 25.677 0 014.3 3.29 21.775 21.775 0 013.23 4c1.8 2.79 2.7 5.76 3.76 8.32a19.959 19.959 0 003.73 6.4 11.293 11.293 0 004.65 3 7.18 7.18 0 003.5.26c.79-.16 1.18-.37 1.24-.33z" class="Vector_118"/>
        <path fill="#FFBE9D" d="M387.66 84.63a7.479 7.479 0 00-7.66 6.64l-8 84.21c-1.4 11.84 14.09 37.23 26.78 38.63 12.81 1.42 14.06-4.79 15.73-16 2.78-18.75 3.71-25.81 3.7-25.7-.01.11 16.5-.55 22.62-21.18 3-10.26 4.78-27.51 5.75-41.67.87-12.75-5.47-29.36-18.24-29.68l-40.68 4.75z" class="Vector_119"/>
        <path fill="#263238" d="M441 120.72a2.724 2.724 0 01-1.01 1.81 2.726 2.726 0 01-1.99.58 2.616 2.616 0 01-2.344-1.782 2.616 2.616 0 01-.126-1.028 2.727 2.727 0 013-2.38 2.588 2.588 0 011.828.877 2.6 2.6 0 01.642 1.923z" class="Vector_120"/>
        <path fill="#263238" d="M442.1 115.27c-.31.38-2.47-1-5.4-.79-2.93.21-5 1.83-5.31 1.49-.17-.15.13-.81 1-1.56a7.5 7.5 0 014.22-1.63 7.192 7.192 0 014.33 1.08c.97.62 1.32 1.24 1.16 1.41z" class="Vector_121"/>
        <path fill="#263238" d="M415.23 122.24c-.35.35-2.37-1.24-5.3-1.31-2.93-.07-5.12 1.33-5.43 1-.15-.16.21-.79 1.17-1.45a7.474 7.474 0 014.35-1.21 7.173 7.173 0 014.21 1.49c.88.68 1.17 1.33 1 1.48z" class="Vector_122"/>
        <path fill="#263238" d="M420.69 137.73c0-.17 1.86-.24 4.84-.23.75 0 1.47 0 1.66-.53a3.802 3.802 0 00-.2-2.26c-.46-1.89-.95-3.87-1.45-5.94-2-8.46-3.33-15.37-3-15.44.33-.07 2.23 6.71 4.22 15.16.47 2.08.93 4.07 1.36 6a4.382 4.382 0 010 3 1.854 1.854 0 01-1.37.92 4.65 4.65 0 01-1.28 0c-2.96-.29-4.79-.51-4.78-.68z" class="Vector_123"/>
        <path fill="#EB996E" d="M418.17 172.4a54 54 0 01-27.23-11.24s5.21 15.42 26.56 16.23l.67-4.99z" class="Vector_124"/>
        <path fill="#263238" d="M415.64 117.23c-.46.71-3.23-.32-6.67-.7-3.44-.38-6.37-.1-6.65-.9-.12-.38.52-1 1.79-1.5a10.992 10.992 0 015.21-.56c1.764.193 3.458.803 4.94 1.78 1.11.79 1.59 1.54 1.38 1.88z" class="Vector_125"/>
        <path fill="#263238" d="M441.67 111.34c-.48.7-2.53.11-5 .2-2.47.09-4.46.68-5 0-.22-.32.07-1 .93-1.68a7.002 7.002 0 014-1.3 6.86 6.86 0 014 1.14c.97.64 1.28 1.3 1.07 1.64z" class="Vector_126"/>
        <path fill="#EB996E" d="M413.61 143a6.238 6.238 0 014.58-1c.82.112 1.576.504 2.14 1.11.609.897.872 1.984.74 3.06a5.863 5.863 0 01-.28 1.9 2.501 2.501 0 01-1.22 1.43 3.437 3.437 0 01-2 .1 7.53 7.53 0 01-3.09-1.12 3.825 3.825 0 01-1.72-2.7 2.589 2.589 0 011.54-2.66" class="Vector_127"/>
        <path fill="#263238" d="M421.5 149.46c-.21.08-.6-.56-1.3-1.43a10.691 10.691 0 00-7.26-4.14c-1.11-.16-1.86-.16-1.9-.39-.04-.23.65-.59 1.92-.71a8.375 8.375 0 018.18 4.66c.54 1.15.55 1.95.36 2.01z" class="Vector_128"/>
        <path fill="#263238" d="M370.83 169.69c6.95-1.38 12.3-7.36 14.7-14 2.4-6.64 2.26-13.95 1.63-21a3.405 3.405 0 00-1-2.48c-1.06-.81-2.56-.15-3.7.54a117.033 117.033 0 00-12.57 8.84c-3.72 3-7.41 6.45-8.83 11-2.19 7 2.44 15.34 9.53 17.18" class="Vector_129"/>
        <path fill="#FFBE9D" d="M530.58 168.06l-32.78-52.68-9.05-18.54s-2.89-3.83-5.89-7.1c-4.93-5.37-9.79-1.2-9.79-1.2a3.307 3.307 0 00-3.29-2 5.571 5.571 0 00-4.53 2.31s-1.34-1.5-5.06-1.73a3.92 3.92 0 00-2.36.76c-1.21-1.07-3.45-2.61-5.6-1.83-1.68.61-11.87 8.36-14.38 12.26-1.24 1.93 1.06 4.43 4.16 3.26a26.365 26.365 0 003.72-1.51 9.91 9.91 0 002.52-2s-2.57 4.5 0 5.29a5.867 5.867 0 004.82-1.17c1-.82 2.11-1.89 3.18-2.94l-.13.18c-1.42 2.1 2.29 5.21 4.08 3.95a24.988 24.988 0 002.39-1.9c4.16 3-1.61 6.89-4.05 6.69a75.842 75.842 0 00-11.28 0c-2.13.18-4 .68-5.16 1.85-1.38 1.42.07 4.4 2 4.71 3.59.55 8.17 1.35 12.93 2.57 5.6 1.44 20.27 6.21 20.27 6.21l1.43 1.16 19.93 48.62-34.13 7.22-7.61 43.24L518.53 207c13.88-7.27 20.47-25.74 12.05-38.94z" class="Vector_130"/>
        <path fill="#EB996E" d="M477.31 123.42a4.248 4.248 0 01-.78-.19l-2.22-.63-8.1-2.41-5.59-1.69c-2-.61-4.15-1.26-6.44-1.84a61.515 61.515 0 00-7.21-1.49 12.583 12.583 0 01-3.92-.7 2.809 2.809 0 01-.88-.66 1.56 1.56 0 01-.3-.54l-.07-.53a4.994 4.994 0 01.13-2.12 2.937 2.937 0 011.41-1.64 10.769 10.769 0 011.91-.76 12.572 12.572 0 014-.48c2.59 0 5.05.39 7.39.29a23.206 23.206 0 003.39-.33c1.09-.2 2.13-.48 3.15-.74a16.564 16.564 0 015.83-.74c1.619.151 3.204.553 4.7 1.19a28.482 28.482 0 013.27 1.61c.88.49 1.54.9 2 1.17.237.132.461.286.67.46a5.315 5.315 0 01-.72-.36c-.5-.28-1.18-.64-2-1.09a32.106 32.106 0 00-3.29-1.52 16.198 16.198 0 00-4.62-1.1 16.564 16.564 0 00-5.69.8c-1 .26-2.06.56-3.18.77a22.833 22.833 0 01-3.46.36c-2.38.11-4.87-.24-7.41-.26a12.161 12.161 0 00-3.79.46c-1.22.4-2.62.84-3 2.07a4.666 4.666 0 00-.11 1.9l.07.46a.922.922 0 00.19.34c.199.219.441.396.71.52 1.209.41 2.473.636 3.75.67a58.88 58.88 0 017.28 1.53c2.29.6 4.43 1.25 6.43 1.89l5.57 1.75 8.06 2.57 2.19.72c.234.078.462.175.68.29z" class="Vector_131"/>
        <path fill="#EB996E" d="M452 86.11c0 .08-1.54 1-3.9 2.8a39.55 39.55 0 00-3.92 3.39c-1.4 1.37-2.88 3-4.61 4.45a4.849 4.849 0 00-1.85 2.47c-.105.454-.041.93.18 1.34.229.376.583.659 1 .8.865.23 1.775.23 2.64 0a13.02 13.02 0 002.3-.65 16.3 16.3 0 004-2.47c-.25.358-.553.675-.9.94a12 12 0 01-3 1.87 13.16 13.16 0 01-2.36.74c-.94.25-1.93.25-2.87 0a2.231 2.231 0 01-1.56-2.7 5.232 5.232 0 012-2.76c1.71-1.47 3.18-3 4.61-4.4a35.37 35.37 0 014-3.35c1.21-.87 2.25-1.49 3-1.91a6.36 6.36 0 011.24-.56z" class="Vector_132"/>
        <path fill="#EB996E" d="M464.54 90.25c-.347.489-.732.95-1.15 1.38-.84.91-1.95 2.13-3.29 3.62l-4.93 5.32a11.896 11.896 0 01-3.47 2.64 5.17 5.17 0 01-2.29.57 3.197 3.197 0 01-2.3-.92 2.19 2.19 0 01-.55-1.25 3.894 3.894 0 01.14-1.28 7.417 7.417 0 011.06-2.19c1.77-1.87 3.41-3.63 4.88-5.25 1.47-1.62 2.94-2.89 4.11-4a8.271 8.271 0 011.71-1.38 4.23 4.23 0 011.62-.35c.89-.06 1.41 0 1.36.11a4.099 4.099 0 00-1.34.06 4.531 4.531 0 00-1.51.4A8.851 8.851 0 00457 89.1c-1.14 1.14-2.55 2.47-4 4.06-1.45 1.59-3.08 3.42-4.85 5.31a7.007 7.007 0 00-1 2 3.218 3.218 0 00-.12 1.1c.026.371.173.722.42 1a2.63 2.63 0 001.92.75 4.868 4.868 0 002.07-.51 11.826 11.826 0 003.33-2.51l5-5.25 3.41-3.5.95-.94a1.8 1.8 0 01.41-.36z" class="Vector_133"/>
        <path fill="#EB996E" d="M479.86 95.07c.06 0 0 .31-.39.59a2.118 2.118 0 01-3.08-.54c-.23-.38-.24-.66-.17-.68.07-.02.2.19.46.45a2.199 2.199 0 002.59.46c.34-.16.53-.35.59-.28z" class="Vector_134"/>
        <path fill="#EB996E" d="M481.07 99.66c-.11.09-.86-.66-1.52-1.78a4.283 4.283 0 01-.84-2.2c.14-.05.64.85 1.28 1.93a7.659 7.659 0 011.08 2.05z" class="Vector_135"/>
        <path fill="#EB996E" d="M483.27 117.54a6.727 6.727 0 01-.94-2.08 17.008 17.008 0 01-.82-5.47 17.193 17.193 0 011-5.44 6.822 6.822 0 011-2.06A26.84 26.84 0 00482 110c.062 2.561.49 5.1 1.27 7.54z" class="Vector_136"/>
        <path fill="#EB996E" d="M510.2 186.83c-.1 0-.2-1.06-.72-2.69a17.6 17.6 0 00-1.18-2.74 18.801 18.801 0 00-2.1-3 17.405 17.405 0 00-2.7-2.46 16.254 16.254 0 00-2.57-1.53c-1.54-.73-2.59-1-2.57-1.06.254-.003.506.03.75.1.685.145 1.355.356 2 .63.951.39 1.856.883 2.7 1.47a15.648 15.648 0 014.94 5.62c.472.914.845 1.876 1.11 2.87.184.654.308 1.323.37 2 .032.263.022.53-.03.79z" class="Vector_137"/>
        <path fill="#FFBE9D" d="M395.82 283.14a14.204 14.204 0 00-8.33 1.06c-4.45-2-9.94 1.43-9.94 1.43-1.61-.77-11.31 5.57-11.31 5.57l-12.08 5.7-64.54-47.9 18.3-19-25.63-26.67-30.05 30.9a22.752 22.752 0 00-6 14.55 29.584 29.584 0 0016.44 28l76 39a88.617 88.617 0 0017.32-2.72c6.56-1.71 17.78-6.69 17.78-6.69s0 .34 2 4.23c3.61 7 8.9-.55 8.9-.55a14.484 14.484 0 002.06 3.41c4.56 4.43 7.73-1.52 7.73-1.52s1.38 2.39 5.46.61c4.08-1.78-.59-14.06-.59-14.06s1.37 2.68 4-.71-3.15-13.73-7.52-14.64z" class="Vector_138"/>
        <path fill="#EB996E" d="M386.69 284.82a1.99 1.99 0 01.84-.32 4.85 4.85 0 012.44.07 9.29 9.29 0 013.24 1.65c.575.435 1.114.916 1.61 1.44a9.092 9.092 0 011.25 1.95 48.102 48.102 0 013 7.41c.29 1 .5 1.77.63 2.33.093.283.137.581.13.88-.07 0-.43-1.18-1.11-3.1a68.316 68.316 0 00-3.07-7.29 9.247 9.247 0 00-1.18-1.85c-.469-.5-.973-.965-1.51-1.39a9.84 9.84 0 00-3.05-1.68 6.648 6.648 0 00-3.22-.1z" class="Vector_139"/>
        <path fill="#EB996E" d="M394.45 311.94a5.637 5.637 0 01-.56-1.11l-1.41-3.06c-1.19-2.59-2.93-6.12-4.6-10.16a26.909 26.909 0 00-2.62-5.46 9.079 9.079 0 00-3.71-3.1 6.096 6.096 0 00-3.21-.57c-.77.1-1.17.31-1.19.26-.02-.05.09-.07.28-.17a3.17 3.17 0 01.88-.29 5.84 5.84 0 013.38.43 9.147 9.147 0 014 3.16 26.042 26.042 0 012.72 5.54c1.65 4 3.34 7.58 4.44 10.21.56 1.31 1 2.39 1.27 3.14.155.379.266.775.33 1.18z" class="Vector_140"/>
        <path fill="#EB996E" d="M364.84 296.51a5.26 5.26 0 011-.57l2.88-1.39c.62-.28 1.27-.61 2-.93a5.671 5.671 0 012.59-.38 5.454 5.454 0 012.71 1 8.453 8.453 0 012 2.37c.511.869.978 1.764 1.4 2.68.43.87.87 1.69 1.3 2.47.87 1.56 1.69 2.95 2.3 4.16.496.969.923 1.972 1.28 3 .155.365.262.748.32 1.14-.08 0-.62-1.56-1.93-3.92-.64-1.18-1.48-2.54-2.38-4.09-.45-.78-.91-1.6-1.34-2.48-.43-.88-.87-1.78-1.4-2.64a8.136 8.136 0 00-1.84-2.23 5.005 5.005 0 00-2.46-1 5.472 5.472 0 00-2.38.3c-.72.29-1.41.61-2 .87l-2.89 1.26a4.483 4.483 0 01-1.16.38z" class="Vector_141"/>
        <path fill="#EB996E" d="M366.24 291.2a4.09 4.09 0 01-.88.56c-.58.33-1.44.79-2.49 1.35-2.12 1.11-5.05 2.63-8.31 4.27-3.26 1.64-6.22 3.1-8.38 4.14-1.08.52-1.95.93-2.56 1.2-.313.172-.65.296-1 .37.273-.215.568-.399.88-.55.59-.33 1.44-.79 2.5-1.35 2.11-1.12 5.05-2.63 8.31-4.27 3.26-1.64 6.22-3.11 8.37-4.14 1.08-.52 2-.93 2.57-1.2.311-.172.644-.3.99-.38z" class="Vector_142"/>
        <path fill="#EB996E" d="M290.48 249.06a25.416 25.416 0 00-15 1.77 6.889 6.889 0 012-1.12 19.103 19.103 0 0110.8-1.27c.763.08 1.507.29 2.2.62z" class="Vector_143"/>
        <path fill="#263238" d="M433 75.84a201.45 201.45 0 00-47.52 5c-3.61.83-7.43 1.89-9.87 4.67-2.59 3-3 7.14-3.38 11l-1.24 14.25a32.054 32.054 0 01-2.28 3.4c-3.76 4.91-8.54 9-12 14.16-3.46 5.16-5.31 12-2.53 17.51 1.69 3.34 4.81 5.7 7.09 8.66 3.87 5 5.13 11.52 7.39 17.44 2.26 5.92 6.34 12 12.57 13.16 3 .57 6.06-.06 9.05.38 4.47.65 8.22 3.58 11.78 6.37 3.56 2.79 7.41 5.63 11.91 6.08 4.5.45 9.65-2.6 9.74-7.11a10.578 10.578 0 01-10.87-.31c-2.62-1.72-4.31-4.52-6.57-6.71-5.52-5.36-14.43-7.06-18.27-13.73-3-5.27-1.83-11.87-.45-17.8 1.19-5.15 2.4-10.72.92-15.66.113-.796.177-1.597.19-2.4 0-5.26-2.05-10.9.4-15.55 3.24-6.16 12.58-6.93 15.85-13.07 1.91-3.57 1.24-8.13 3.32-11.6 2-3.26 5.86-4.76 9.57-5.57 3.71-.81 7.64-1.18 10.92-3.09 3.28-1.91 5.77-5.98 4.28-9.48z" class="Vector_144"/>
        <path fill="#263238" d="M445.12 183.13c-.04.089-.09.172-.15.25l-.49.69a13.93 13.93 0 01-2.3 2.33 16.083 16.083 0 01-11.37 3.24 14.305 14.305 0 01-7.66-3.14c-2.38-1.83-4.5-4.25-7.19-6.19a10.375 10.375 0 00-4.58-1.93 10.104 10.104 0 00-5.1.93 26.126 26.126 0 01-5.3 1.83 9.36 9.36 0 01-5.69-1 28.209 28.209 0 01-4.81-3.19 40.255 40.255 0 01-4.22-3.66 13.344 13.344 0 01-3-4.53 9.24 9.24 0 01-.34-5.19c.365-1.608.87-3.181 1.51-4.7a60.98 60.98 0 001.52-4.34 57.868 57.868 0 001.85-8c.619-3.945.837-7.942.65-11.93-.07-1.41-.16-2.51-.23-3.25 0-.34-.06-.62-.08-.84a1.083 1.083 0 010-.29.96.96 0 01.06.28c0 .22.04.5.12.84.11.74.24 1.84.33 3.25a56.282 56.282 0 01-.49 12 57.396 57.396 0 01-1.8 8.11c-.43 1.43-.93 2.9-1.5 4.38a28.08 28.08 0 00-1.47 4.62 8.762 8.762 0 00.34 4.93 12.744 12.744 0 002.9 4.34 38.601 38.601 0 004.17 3.61 28.306 28.306 0 004.72 3.14 8.796 8.796 0 005.38 1 25.328 25.328 0 005.19-1.79 10.55 10.55 0 015.35-.94c1.74.264 3.388.951 4.8 2 2.74 2 4.84 4.43 7.18 6.24a13.844 13.844 0 007.43 3.11 16.003 16.003 0 0011.2-3 18.018 18.018 0 003.07-3.21z" class="Vector_145"/>
        <path fill="#455A64" d="M345.21 151.33c-.29-.349-.557-.717-.8-1.1a11.3 11.3 0 01-1.42-3.65 15.07 15.07 0 01.1-6.18 18.778 18.778 0 013.46-7.41 34.33 34.33 0 017.22-6.83c2.87-2.14 6.13-4.12 9.38-6.44a34.593 34.593 0 008.9-8.65 22.293 22.293 0 002.7-6c.64-2.14 1.08-4.38 1.6-6.63a35.259 35.259 0 012-6.59 14.873 14.873 0 013.93-5.43 16.484 16.484 0 015.72-3.09 26.314 26.314 0 016.08-1.21 69.408 69.408 0 0111.4.37c3.276.347 6.577.387 9.86.12a21 21 0 007.73-2.3 15.443 15.443 0 004.73-3.82 11.708 11.708 0 001.92-3.35c.28-.84.38-1.29.41-1.29-.073.45-.18.895-.32 1.33a10.987 10.987 0 01-1.85 3.44 15.58 15.58 0 01-4.76 3.95 21.098 21.098 0 01-7.85 2.43 53.435 53.435 0 01-9.94-.06 70.003 70.003 0 00-11.32-.32c-2.041.158-4.055.56-6 1.2a16.165 16.165 0 00-5.5 3 14.456 14.456 0 00-3.79 5.26 34.728 34.728 0 00-2 6.49c-.52 2.25-1 4.5-1.62 6.67a22.192 22.192 0 01-2.77 6.1 34.725 34.725 0 01-9 8.76c-3.28 2.32-6.54 4.29-9.41 6.4a34.673 34.673 0 00-7.18 6.7 18.756 18.756 0 00-3.47 7.26 14.871 14.871 0 00-.18 6.07 12.543 12.543 0 002.04 4.8z" class="Vector_146"/>
        <path fill="#455A64" d="M348.14 156.58a22.713 22.713 0 01-3.08-2.94 14.338 14.338 0 01-2.67-4.24 7.079 7.079 0 01-.45-3.13 6.134 6.134 0 011.35-3.27c1.61-2 4.3-3.05 7.11-3.64 1.41-.3 2.88-.53 4.36-.89a12.61 12.61 0 004.26-1.78 10.301 10.301 0 003.1-3.67 33.17 33.17 0 001.92-4.77 33.922 33.922 0 012-5 10.67 10.67 0 013.75-4.15 18.707 18.707 0 015.21-2c1.77-.46 3.52-.83 5.17-1.39a16.715 16.715 0 007.94-5.85 61.188 61.188 0 004.93-7.7 42.943 42.943 0 014.49-6.66 17.08 17.08 0 015.13-4.19 13.137 13.137 0 014.79-1.45 9.284 9.284 0 013.16.26c.344.093.678.217 1 .37 0 0-.37-.11-1.07-.27a9.579 9.579 0 00-3.11-.15 12.898 12.898 0 00-4.67 1.5 16.879 16.879 0 00-5 4.17 43.325 43.325 0 00-4.4 6.63 60.226 60.226 0 01-4.92 7.79 20.92 20.92 0 01-3.53 3.57 14.905 14.905 0 01-4.63 2.46c-1.69.58-3.45 1-5.2 1.41a18.325 18.325 0 00-5.06 2 10.175 10.175 0 00-3.58 4 33.767 33.767 0 00-2 4.93 32.975 32.975 0 01-2 4.83 10.783 10.783 0 01-3.26 3.84 12.99 12.99 0 01-4.43 1.82c-1.51.36-3 .58-4.38.87-2.77.56-5.38 1.59-6.92 3.45a6.006 6.006 0 00-1.3 3.08 6.695 6.695 0 00.4 3 13.927 13.927 0 002.55 4.2c.674.802 1.388 1.57 2.14 2.3l.59.57c.107.017.211.047.31.09z" class="Vector_147"/>
        <path fill="#EB996E" d="M471.24 92c-.14.28-.314.543-.52.78-.36.47-.9 1.15-1.58 2a94.874 94.874 0 01-5.62 6.14c-1.14 1.12-2.21 2.38-3.68 2.84a3.246 3.246 0 01-2.11 0 2.662 2.662 0 01-1.36-1.25 4.077 4.077 0 01-.37-2.61c.023-.313.104-.618.24-.9.027.306.027.614 0 .92a4.1 4.1 0 00.49 2.34c.268.462.689.816 1.19 1a2.818 2.818 0 001.81 0c1.27-.41 2.31-1.61 3.46-2.74 2.29-2.3 4.28-4.46 5.71-6a26.711 26.711 0 012.34-2.52z" class="Vector_148"/>
        <path fill="#EB996E" d="M478.87 92a3.663 3.663 0 01-.6.78c-.41.47-1 1.16-1.78 2l-2.69 2.91-1.6 1.71a13.694 13.694 0 01-1.88 1.73 4.653 4.653 0 01-2.43 1 2.496 2.496 0 01-2.27-1 1.87 1.87 0 01-.37-1.16 2.19 2.19 0 01.34-1.07c.37-.59.75-1.06 1.07-1.52.67-.91 1.22-1.64 1.61-2.14.18-.276.399-.526.65-.74a4.584 4.584 0 01-.49.86c-.33.53-.83 1.29-1.46 2.23-.31.47-.69 1-1 1.52a1.497 1.497 0 00.05 1.74 1.996 1.996 0 001.84.77 4.423 4.423 0 002.17-.88 14.424 14.424 0 001.8-1.74l1.63-1.68 2.77-2.83c.79-.81 1.44-1.45 1.9-1.88.46-.43.72-.61.74-.61z" class="Vector_149"/>
      </g>
      <g class="Speech Bubble">
        <path fill="#fff" d="M458.75 73.73l8-14.48a38.616 38.616 0 019.249-51.279 38.619 38.619 0 0151.979 56.71 38.62 38.62 0 01-51.888 4.759l-17.34 4.29z" class="Vector_150"/>
        <path fill="#263238" d="M458.75 73.73l17.37-4.4-.07.21-.61-.77.79.59a39.522 39.522 0 008 4.62 38.242 38.242 0 0010.52 2.85c2.006.254 4.03.33 6.05.23 1-.08 2.1-.12 3.16-.22l3.22-.53a38.54 38.54 0 0023.65-15.57 38.149 38.149 0 006.17-14.8 38.86 38.86 0 00-.59-16.94 37.651 37.651 0 00-8.31-15.58l-1.57-1.69c-.52-.57-1.13-1-1.69-1.56a22.196 22.196 0 00-1.74-1.49l-1.84-1.35a16.625 16.625 0 00-1.9-1.23L517.42 5l-2-1a17.424 17.424 0 00-2-.89A38.93 38.93 0 00496.25.63a37.59 37.59 0 00-15.63 4.76 38.757 38.757 0 00-17.94 22.41 41.216 41.216 0 00-1.58 12.43 38.269 38.269 0 005.8 19v.13l-8.15 14.42c.43-.77 2.88-5.28 7.93-14.54v.12a38.437 38.437 0 01-5.94-19.07 41.764 41.764 0 011.55-12.56A39.239 39.239 0 01480.38 5 38.229 38.229 0 01496.21.13a39.33 39.33 0 0117.31 2.49c.712.254 1.407.555 2.08.9l2.06 1 2 1.16a18.73 18.73 0 011.93 1.25l1.86 1.37c.612.473 1.199.977 1.76 1.51.57.53 1.19 1 1.72 1.58l1.59 1.72a38.195 38.195 0 018.42 15.78 39.449 39.449 0 01.59 17.11 38.243 38.243 0 01-6.38 15 38.938 38.938 0 01-23.95 15.7l-3.26.52c-1.08.1-2.15.14-3.2.21-2.04.096-4.085.009-6.11-.26A38.378 38.378 0 01484 74.25a39.433 39.433 0 01-8-4.7l.18-.19.12.16h-.19l-17.36 4.21z" class="Vector_151"/>
        <path fill="#3D3ADA" d="M488.74 32.14h5a4.278 4.278 0 011.254-3.083 4.273 4.273 0 013.086-1.247 4 4 0 014 2.55 4.466 4.466 0 01-.32 4.06c-.83 1.41-2.68 2.71-6.07 2.14l.11 11.31h5l-.07-6.62a9.7 9.7 0 006.87-9.53c-.07-7.33-6.67-9-9.48-8.94-2.23-.07-9.56.52-9.38 9.36z" class="Vector_152"/>
        <path fill="#3D3ADA" d="M500.798 50.11l-5.029.049.045 4.7 5.029-.049-.045-4.7z" class="Vector_153"/>
      </g>
    </g>
  </g>
  <defs>
    <clipPath id="clip0_648_1613" class="clip0_648_1613">
      <path fill="#fff" d="M0 0h689.25v420.81H0z"/>
    </clipPath>
  </defs>
</svg>
